<?xml version="1.0" encoding="UTF-8"?>
<svg id="Layer_1" data-name="Layer 1" xmlns="http://www.w3.org/2000/svg" version="1.1" viewBox="0 0 900.5 901">
  <defs>
    <style>
      .cls-1 {
        fill: #f2e2c4;
        stroke-width: 0px;
      }
    </style>
  </defs>
  <path class="cls-1" d="M701.6,350.8c63.2,39.8,71.5,121.6,69.8,189.7,0,49.9-.9,99.8,0,149.7,1,55.2,6.7,40.4-69.3,43.7-18.8,0-37.4.2-56.1,0-10.6-.8-4.6-23.2-6.1-30.8-1.8-69.7,4-140.1-2.9-209.4-4.4-27.1-20.5-57.2-50.7-60.2-24.3-2.9-50.5,2.4-66.3,22.5-16.5,18.2-20.2,42.5-20,66.2-.6,48.9-.4,98-.4,146.9s.5,38.5,0,57.7c-.2,11.4-15.9,5.7-23.2,7.2h-90.7c-13.5,0-18.9,1.4-17.3-15.2.5-124.1,2.5-248.5,0-372.5-1-11.5,13.1-7.4,20.3-8.2h91.3c5.9,1.1,16.7-2.7,19.3,4.5,1,15.2,0,30.1.4,45.9-.2,4.6.9,6.2,3.6,1.8,5.5-8.6,12.2-16.3,19.4-23.5,45.1-47.1,124.9-48.6,178.7-16h.2,0Z"/>
  <path class="cls-1" d="M162.6,244.8c-1.9-3.7-2.7-7.8-3.6-11.8-1-4.4-2.2-8.7-2.4-13.1.1-7.4,0-14.8,1.6-22.2,3.5-14.4,12.2-27.9,24.3-36.5,6.1-3.5,12.3-7,18.7-9.8,3.3-1.3,6.9-1.8,10.5-2.5,6.7-1.5,13.4-2.4,20.2-1.9,7.8-.2,15.3,1.4,22.9,3.2,2.2.5,4.4,1,6.5,1.9,8.1,3.8,16.1,8.7,22.9,14.7,10.7,10.1,17.3,23.9,18.8,38.5.3,6.6,1.1,13.1.3,19.7-3.9,27.1-22,46.5-47.8,54.5-8.7,2.9-17.6,3.5-26.7,3.5-18.6.7-37.1-6.2-51.2-18.2-3-2.6-5.3-5.7-7.5-9-2.4-3.6-5.1-7.2-7.2-10.9v-.2h-.3Z"/>
  <path class="cls-1" d="M164.3,441.9v-97.2c0-1.9.2-4.4,1.8-5.4,40.2-2.7,81.4-.1,121.9-1,4.5-.3,7.5,1.7,7.1,6.6v277.2c0,34.9.1,70-.1,104.9,0,2-.3,3.8-1.4,4.9-1.8,1.9-5.4,1.7-8.1,1.8-38.4,0-76.9.3-115.3,0-8.7-.5-5-11.5-5.7-17.2-.2-18.1-.3-36.3-.3-54.3v-220.3h.1Z"/>
</svg>