<?xml version="1.0" encoding="UTF-8"?>
<svg id="Layer_1" data-name="Layer 1" xmlns="http://www.w3.org/2000/svg" version="1.1" viewBox="0 0 1024 1024">
  <defs>
    <style>
      .cls-1 {
        fill: #f2e2c4;
        stroke-width: 0px;
      }
    </style>
  </defs>
  <path class="cls-1" d="M283.5,394.3c43,0,86,0,129,.1,4.1,0,5.8-1.4,7-5.2,13.1-41.8,26.3-83.5,39.5-125.2,11.6-37,23.2-74,34.8-111,1.4-4.4,2.4-9,3.8-13.4,2.3-7.2,8-11.8,14.3-11.8s11.6,4.2,14,11.6c3.7,11.4,7.1,22.9,10.7,34.3,17,53.6,34,107.3,50.9,160.9,5.7,17.9,11.1,35.9,16.3,54,1.3,4.5,3.6,5.7,8.2,5.7,84.2-.1,168.3,0,252.5,0h6c9,.2,14.8,4.4,17.5,12.9,2.4,7.5-.2,15.2-7.3,20.1-12.4,8.5-24.9,16.7-37.4,25-56.4,37.3-112.8,74.6-169.3,111.8,0,0-.3.2-.4.3-3.6,2.8-10,3.9-10.7,8.1-.7,4,2.6,8.7,4.2,13,27.9,73.8,55,148,81.6,222.2,4.6,12.9-2.4,24.6-13.4,26.8-5.8,1.1-10.5-1-14.9-4.1-15.9-11-31.7-22-47.6-33-51.7-35.7-103.4-71.3-155-107.1-4.5-3.1-7.6-3.3-12.2,0-39.8,27.9-79.8,55.6-119.8,83.3-27.2,18.9-54.5,37.7-81.8,56.6-5.6,3.9-11.4,5.9-18.3,3.2-8.6-3.3-14.8-13.7-11-24.1,11.2-30.1,21.7-60.5,32.7-90.7,17.4-47.5,35-95,52.6-142.4,1.4-3.8.4-5.4-2.7-7.5-67.9-44.7-135.6-89.6-203.4-134.4-4-2.7-8.1-5.2-12-8.1-6.2-4.6-8.5-11.6-6.4-18.6,2.3-7.6,7.6-12.2,15.5-12.7,7.3-.5,14.7-.5,22-.5h110.5Z"/>
</svg>