<?xml version="1.0" encoding="utf-8"?>
<!-- Generator: Adobe Illustrator 16.0.0, SVG Export Plug-In . SVG Version: 6.00 Build 0)  -->
<!DOCTYPE svg PUBLIC "-//W3C//DTD SVG 1.1//EN" "http://www.w3.org/Graphics/SVG/1.1/DTD/svg11.dtd">
<svg version="1.1" id="Layer_1" xmlns="http://www.w3.org/2000/svg" xmlns:xlink="http://www.w3.org/1999/xlink" x="0px" y="0px"
	 width="229px" height="229px" viewBox="165.965 33.23 229 229" enable-background="new 165.965 33.23 229 229"
	 xml:space="preserve">
<path fill="#A67A46" d="M362.451,147.653c0.555,38.404-24.494,73.705-61.652,84.706c-27.902,8.284-54.253,3.906-78.083-13.328
	c-2.854-2.051-5.348-4.545-7.813-7.039c-0.554-0.554-1.773-1.107-0.942-2.078c0.832-0.969,1.58,0.139,2.217,0.582
	c8.063,5.985,17.041,9.893,26.933,11.721c29.427,5.432,57.273-7.37,72.375-33.25c6.928-11.859,11-24.605,11.084-38.377
	c0.249-36.825-27.487-69.41-63.924-74.703c-16.792-2.438-32.89,0.277-47.298,9.947c-0.721,0.471-1.552,1.164-2.3,0.167
	c-0.693-0.915,0.055-1.663,0.665-2.272c4.295-4.295,8.867-8.285,14.104-11.389c16.237-9.67,33.888-14.325,52.757-13.106
	c20.698,1.357,38.654,9.421,53.727,23.746c15.074,14.326,24.467,31.616,27.377,52.314
	C362.313,139.589,362.59,143.884,362.451,147.653z M204.733,153.97c-1.468-6.29-1.663-12.608-0.776-18.981
	c0.111-0.914,0.25-1.856-0.887-2.161c-1.025-0.277-1.357,0.609-1.718,1.302c-0.194,0.36-0.305,0.748-0.416,1.108
	c-1.995,6.456-2.993,13.106-2.245,19.812c4.212,36.604,38.044,57.607,69.327,51.455c11.278-2.216,21.004-7.314,28.734-15.959
	c0.609-0.693,1.662-1.469,0.887-2.439c-0.887-1.136-1.719,0.056-2.383,0.582c-9.727,7.537-20.865,10.641-37.186,10.752
	C232.22,199.856,210.414,178.576,204.733,153.97z"/>
</svg>
