<?xml version="1.0" encoding="utf-8"?>
<!-- Generator: Adobe Illustrator 28.3.0, SVG Export Plug-In . SVG Version: 6.00 Build 0)  -->
<svg version="1.1" id="Layer_1" xmlns="http://www.w3.org/2000/svg" xmlns:xlink="http://www.w3.org/1999/xlink" x="0px" y="0px"
	 viewBox="0 0 1024 1023" style="enable-background:new 0 0 1024 1023;" xml:space="preserve">
<style type="text/css">
	.st0{fill:#95BFB8;}
</style>
<path class="st0" d="M807.9,511.2c2,138.6-88.4,266-222.5,305.7c-100.7,29.9-195.8,14.1-281.8-48.1c-10.3-7.4-19.3-16.4-28.2-25.4
	c-2-2-6.4-4-3.4-7.5c3-3.5,5.7,0.5,8,2.1c29.1,21.6,61.5,35.7,97.2,42.3c106.2,19.6,206.7-26.6,261.2-120
	c25-42.8,39.7-88.8,40-138.5c0.9-132.9-99.2-250.5-230.7-269.6c-60.6-8.8-118.7,1-170.7,35.9c-2.6,1.7-5.6,4.2-8.3,0.6
	c-2.5-3.3,0.2-6,2.4-8.2c15.5-15.5,32-29.9,50.9-41.1c58.6-34.9,122.3-51.7,190.4-47.3c74.7,4.9,139.5,34,193.9,85.7
	c54.4,51.7,88.3,114.1,98.8,188.8C807.4,482.1,808.4,497.6,807.9,511.2z M238.7,534c-5.3-22.7-6-45.5-2.8-68.5
	c0.4-3.3,0.9-6.7-3.2-7.8c-3.7-1-4.9,2.2-6.2,4.7c-0.7,1.3-1.1,2.7-1.5,4c-7.2,23.3-10.8,47.3-8.1,71.5
	c15.2,132.1,137.3,207.9,250.2,185.7c40.7-8,75.8-26.4,103.7-57.6c2.2-2.5,6-5.3,3.2-8.8c-3.2-4.1-6.2,0.2-8.6,2.1
	c-35.1,27.2-75.3,38.4-134.2,38.8C337.9,699.6,259.2,622.8,238.7,534z"/>
</svg>
