<?xml version="1.0" encoding="UTF-8"?>
<svg id="Layer_1" data-name="Layer 1" xmlns="http://www.w3.org/2000/svg" version="1.1" viewBox="0 0 1024 1024">
  <defs>
    <style>
      .cls-1 {
        fill: #f2f2f2;
        stroke-width: 0px;
      }
    </style>
  </defs>
  <path class="cls-1" d="M797,396.3c12.2-5.1,23.9-10.1,35.7-15.1,20.1-8.8,40.1-17.6,60.1-26.4,11.4-5,20.9-1.6,25.4,8.9,3.9,9.3-.8,20-11.2,24.5-31.1,13.1-62.3,26.2-93.5,39.1-4.2,1.8-5.8,3.4-4.3,8.4,18.1,58.1,16.6,116.5,0,174.6-17.4,60.8-50.8,111.4-100.4,151-13.2,10.5-27.7,19.5-42.6,27.4-5.5,3-6.2,5.8-3.8,11.2,11.8,25.7,23.4,51.6,35,77.4,1.6,3.5,3.2,6.9,4.6,10.4,4.2,10.9,0,21.2-9.9,25.5-9.2,3.9-18.5-.4-23.5-11.4-11.8-25.8-23.4-51.6-35-77.4-2.6-5.7-5.1-11.2-8.1-17.3-4.3,1.4-8.2,2.6-12.2,4.1-20.3,7.3-41.4,11.1-62.7,13.7-2.4.3-5.8-.4-5.9,3.5,0,3.6-1.6,7.7,3,10.1,2.7,1.5,5.4,3.1,8,4.7,27.2,17.6,38.4,52,26.9,82.2-11.5,30.3-42.7,48.2-74.9,43.4-30.3-4.7-52.4-25.3-57.8-53.5-5.8-30.3,7.3-58.9,34.5-74.5,4.3-2.4,7.2-5.1,6.6-10.5-.3-3.1-1.2-4.9-4.6-5.1-25.9-2.4-51.2-8.2-75.5-18-3.2,2.7-4.5,6.5-5.9,9.9-12.3,27.3-24.6,54.7-36.9,82-1.6,3.5-3.1,6.9-5.8,9.7-6.1,6.1-14.7,7.7-21.6,3.9-6.9-3.9-10.4-12.2-8.1-20.3,1.2-4.3,3.1-8.5,4.9-12.7,12-26.9,24.1-53.9,36.1-80.8.8-1.9,1.6-3.9,2.8-6.5-42.2-19.7-74.9-50.4-103.7-85.7-1.8-.5-2.8.7-3.9,1.4-31.2,19.6-62.6,39.2-93.8,58.7-10.8,6.8-21.2,4.9-27.2-4.9-5.9-9.6-2.8-19.6,8.4-26.5,31.1-18.9,62.3-37.7,93.4-56.6.9-.5,1.9-1.2,3.6-2.4-5.3-9.9-10.5-19.7-16.2-30.3-9.3,4.6-18.5,8.9-27.6,13.5-22.3,11.4-44.5,23-66.6,34.5-12.2,6.4-21.1,4.5-26.2-5.5-5.5-10.7-1.6-21.2,10.1-27.2,30.4-15.4,60.7-30.8,91.2-45.8,5.8-2.8,7.7-5.3,5.8-12.3-14.7-56.4-14.2-112.6,1.9-168.5.3-.9.5-1.9.7-2.7.1-.4-.1-.9-.3-2.2-15.5-6.8-31.5-13.7-47.4-20.4-16.4-7-32.8-13.9-49.3-20.8-7.3-3.1-12.6-7.8-13-16.4-.3-7.8,3.4-13.7,10.1-17.6,6.6-3.9,12.8-1.4,19.1,1.2,28.7,12.3,57.3,24.7,86,37,2.2.9,4.5,1.8,7.3,3,5.7-10.9,11.2-21.8,17.2-33.4-33.2-3.1-60.8-15.1-79.9-43-12.2-17.8-16.1-37.4-14.1-58.4,3.2-35.3,31.4-77.2,83.7-82.2,26.9-2.6,50.1,5.9,70,24.2,19.7,18.1,29.6,40.8,31.8,67.8,10-5.8,19.2-11.1,28.7-16.6-10.7-24.2-21.1-47.8-31.6-71.6-3.2-7.4-6.9-14.6-10.3-22-4.7-10.3-1.4-21.2,8-25.7,9.7-4.6,20.4-.5,25.4,10.4,8.2,18.2,16.1,36.6,24.2,54.9,5.8,13.2,11.6,26.5,17.7,40.1,72.2-26.9,144.2-26.2,217.2-.7,5.7-13,11.4-25.9,17-38.9,8.4-18.9,16.8-37.8,25.4-56.6,3.4-7.4,9.3-11.2,17.7-10.5s13.4,5.5,16.2,13.1c1.9,4.9.5,9.2-1.5,13.8-12.4,27.3-24.7,54.6-37,82-1.5,3.4-3,6.9-4.7,10.9,6.9,4.1,13.4,8,19.7,11.6,33.7-35.1,67.8-68.8,102.8-103.1,34.7,35.1,68.9,69.9,104.1,105.6,0-.3-1.2.4-2,1.1-32.4,31.5-64.7,63.1-97.3,94.6-3.4,3.2-3.8,5.8-1.8,9.7,4.2,7.2,7.8,14.9,11.9,23.2h-.3ZM252.9,520.9c-.3,153.8,118.8,268.9,265.7,267.9,157-1.2,263.8-121.4,264.4-269.2.5-152-123.7-261.5-264.8-261.8-138-.4-266,105-265.3,263.1h0ZM252.9,212.4c-31.1.1-57,25.9-57,56.8s24.7,57.8,57.7,58c31.4,0,57.7-25.9,57.7-56.9.1-31.8-26.2-58-58.4-57.8h0ZM756.8,229.9c19.6,20.5,40.3,42.2,58.9,61.8,10.1-9.1,19.6-17.4,28.7-25.5-10.7-10.9-20.8-21.6-31.4-31.9-10.4-10.3-21.2-20.3-32.2-30.7-8.5,9.3-16.6,18.2-24.1,26.4h0ZM551,900.9c0-17.7-16.1-33.4-34.3-33.2-17.3,0-32.2,15.8-32,33.8.1,17.3,14.6,31.4,32.3,31.6,18.9,0,34.1-14.1,34.1-32.2h0ZM705.5,277.8c23.4,19.6,43.4,40.7,62.7,61.4,9.3-9.1,17.7-17.2,26.5-25.7-19.7-21.4-41.5-41-62.3-61.1-9.1,8.5-17.6,16.6-26.9,25.4h0ZM130.5,525c8.8,8.8,17.2,17.2,25.7,25.5,8.2,8.2,16.5,16.4,23.8,23.8-16.6,17.7-32.8,34.9-49.6,52.7-17.3-18.1-33.7-35.3-51.4-53.8,15.9-14.7,33.1-30.5,50.7-46.9-16.6-19.5-35.1-34.2-50.7-51.6,17.2-16.9,34.2-33.5,51.4-50.4,15.8,16.5,32.2,33.7,48.4,50.5-15,15.5-31.4,32.6-48.2,50.1h-.1,0ZM516.5,197.6c-33.9,0-60.4-26.4-60.5-60-.1-35.1,26.8-63.1,60.4-63.1s63,27.4,63,63-26.9,60.1-62.8,60.1h-.1ZM517.5,160.5c13.8,0,24.9-10.8,24.7-24.2,0-12.6-11.8-23.7-24.7-23.7s-23.8,11.2-23.8,24.5c-.3,12.7,10.7,23.4,23.8,23.4ZM698.4,811.5c21.4-21.5,43.7-43.2,65.4-67.2,21.1,23.5,42.7,46.1,65.1,67-22.4,22-44.3,43.7-66.2,65.4-20.5-20.9-42.3-42.8-64.3-65.3h0ZM846.7,783.2c-20.7-23.7-43.5-43.9-66.1-65.5,22.6-22.3,44.6-44.6,66.5-67.7,21.9,22.8,43,45.4,66.2,66.8-23,21.6-45,43.5-66.6,66.5h0ZM263.4,757.7c31.4,0,55.8,24.7,55.8,56.5s-24.6,54.9-55.7,55.1c-31.2,0-56.6-24.1-56.6-54.1s24.2-57.4,56.5-57.6h0ZM240,813.4c-.1,11.5,10.4,22.4,22.2,22.8,12.6.4,23.8-10,24.1-22.4.3-12.2-10.5-22.8-23.4-23.1-11.9-.4-22.6,10.3-22.8,22.7h-.1ZM858.1,581.4v-29.3c0-7.8,3.6-12.4,11.5-12.6,21.5-.4,42.8-.4,64.3,0,6.6,0,10.7,4.3,10.8,10.9.3,20.7.3,41.5,0,62.2,0,6.9-4.9,11.8-11.9,11.8-20.9.3-41.9.3-62.8,0-7.3,0-11.8-5-11.9-12.4-.3-10.1,0-20.3,0-30.5h0ZM902.2,440.6c9.7,0,19.5-.1,29.3,0,8.6.1,13.1,4.6,13.1,13.4,0,18.5.3,37.2,0,55.7,0,8-4.1,12.8-12,13-20.9.4-41.9.4-62.8,0-7.7,0-12-5.3-12-13.1v-55c0-8.8,4.9-13.8,13.5-13.9,10.4-.1,20.7,0,30.8,0h.1ZM636.4,346.7c-97.6,99.1-195,198.1-292.7,297.3-54.9-73.3-53.9-195.2,20.9-270.3,73.5-73.7,193-83.1,271.8-27h0ZM694.1,405.1c48.5,61.5,55.4,182.5-20.1,263.7-77,82.8-203.4,83.7-276.1,30.7,99.2-97.8,198.1-195.7,296.2-294.4h0Z"/>
</svg>