<?xml version="1.0" encoding="utf-8"?>
<!-- Generator: Adobe Illustrator 28.3.0, SVG Export Plug-In . SVG Version: 6.00 Build 0)  -->
<svg version="1.1" id="Layer_1" xmlns="http://www.w3.org/2000/svg" xmlns:xlink="http://www.w3.org/1999/xlink" x="0px" y="0px"
	 viewBox="0 0 1024 1024" style="enable-background:new 0 0 1024 1024;" xml:space="preserve">
<style type="text/css">
	.st0{fill:#5F736F;}
</style>
<path class="st0" d="M643,521.68c0.03,69.04-64.22,128.97-142.1,123.3c-60.07-4.37-110.5-51.96-117.99-111.98
	c-6.83-54.7,10.31-100.03,55.78-132.38c69.97-49.78,149.23-14.82,182.25,35.91C635.98,459.63,643.15,484.96,643,521.68z
	 M639.04,705.52c2.89,1.94,4.56,3.1,6.27,4.21c63.46,41.3,128.44,80.29,190.14,124.29c3.38,2.41,6.72,4.9,10.14,7.26
	c3.2,2.21,6.68,3.85,10.05,0.63c3.46-3.3,2.84-6.99,0.12-10.55c-1.68-2.2-3.27-4.48-5.02-6.62
	c-46.98-57.62-93.12-115.9-138.62-174.69c-1.93-2.49-3.34-5.56-7.66-7.5C687.5,668.33,664.87,688.08,639.04,705.52z M286.6,683.5
	c-35.13,44.58-70.28,89.15-105.41,133.72c-4.14,5.25-8.4,10.42-12.35,15.82c-2.06,2.82-2.39,6.18,0.26,8.9
	c2.69,2.76,5.87,2.07,8.89,0.32c1.19-0.69,2.34-1.49,3.45-2.31c50.85-37.68,104.48-71.21,157.69-105.36
	c15.05-9.66,30.26-19.09,46.03-29.03c-13.26-8.98-25.21-17.96-35.93-28.51c-10.87-10.69-20.4-22.51-29.74-35.34
	C308.22,656.03,297.42,669.77,286.6,683.5z M363.91,301.75C306.04,265,247.42,229.42,191.16,190.18c-4.35-3.03-8.53-6.32-12.98-9.2
	c-3.01-1.94-6.29-1.82-8.79,1.02c-2.38,2.7-1.59,5.65,0.35,8.25c2.34,3.15,4.8,6.21,7.32,9.21
	c42.32,50.41,82.85,102.23,122.96,154.39c6.39,8.32,12.55,16.81,19.14,25.66c9.96-12.59,19.4-24.23,30.52-34.39
	c11.22-10.24,23.68-18.87,37.54-28.18C378.56,311.28,371.28,306.43,363.91,301.75z M718.01,362.2
	C761,307.36,803.16,251.85,848.27,198.7c2.68-3.16,5.28-6.43,7.48-9.92c1.45-2.3,0.93-4.87-1.06-6.99
	c-2.11-2.25-4.42-2.16-6.89-0.77c-1.6,0.91-3.22,1.82-4.73,2.86c-60.77,41.96-123.61,80.73-185.64,120.76
	c-6.24,4.02-12.91,7.59-19.07,13.5c26.5,16.52,47.95,37.23,66.96,62.15C710.08,373.47,713.76,367.61,718.01,362.2z M558.77,796.61
	c-11.81,7.2-23.99,13.9-35.26,21.87c-8.13,5.75-14.2,5.8-22.51-0.1c-13.44-9.54-28.04-17.44-42.42-26.2
	c-1.34,3.91,0.27,6.42,0.96,8.99c12.56,46.98,26.03,93.71,37.53,140.97c3.6,14.78,6.94,29.62,10.32,44.45
	c0.66,2.88,1.49,5.51,4.97,5.65c4.13,0.17,4.6-3.01,5.12-6.06c0.5-2.95,0.95-5.92,1.59-8.84c9.24-42.35,20.69-84.13,31.97-125.96
	c5.2-19.27,10.41-38.54,16.03-59.37C563.41,794.03,561.03,795.23,558.77,796.61z M793.42,565.45c23.51-6.62,47-13.34,70.53-19.89
	c37.53-10.44,75.33-19.87,113.29-28.64c2.61-0.6,5.97-0.72,6.37-4.26c0.4-3.56-2.76-3.71-5.16-4.29
	c-61.2-14.74-121.65-32.14-181.78-50.72c-3.03-0.94-6.17-2.65-10.39-1.55c8.88,15.1,16.88,29.92,26.1,43.94
	c5.94,9.02,5.28,16.07-0.54,24.86c-8.73,13.18-17.4,26.54-24.1,41.06C790.07,567.08,791.72,565.93,793.42,565.45z M458.97,232.28
	c15.58-9.82,31.33-19.38,46.64-29.61c5.26-3.51,9.17-3.45,14.22-0.06c13.97,9.4,28.18,18.46,42.36,27.56
	c1.36,0.87,2.55,2.9,5.03,1.48c-0.47-1.96-0.88-3.96-1.42-5.93c-8.09-29.35-16.63-58.58-24.19-88.07
	c-8.59-33.5-18.5-66.68-25.07-100.68c-0.43-2.21-0.68-4.97-3.62-5.2c-3.39-0.27-3.87,2.63-4.55,5.09c-0.24,0.89-0.48,1.78-0.67,2.69
	C496.93,90.6,482.8,140.79,469,191.07c-3.7,13.49-7.75,26.89-11.64,40.34C457.89,231.7,458.43,231.99,458.97,232.28z M228.82,457.06
	C185.27,470.7,141.33,483,97.38,495.25c-16.86,4.7-34,8.4-51,12.59c-2.62,0.64-6.1,0.78-6.03,4.46c0.07,3.61,3.56,3.74,6.16,4.36
	c4.93,1.18,9.93,2.09,14.86,3.28c54.91,13.26,109.45,27.91,163.59,44.02c3.66,1.09,7.38,1.97,12.57,3.34
	c-9.94-16.86-18.74-32.51-28.32-47.66c-3.76-5.94-3.51-10.37,0.02-16.19c9.32-15.34,18.01-31.07,27.24-47.15
	C233.03,455.03,230.96,456.39,228.82,457.06z M640.58,371.95c-31.14-29.76-68.74-46.38-112.56-49.5
	c-0.99,8.76-0.97,16.48-0.08,24.53c3.36,0.57,6.3,1.04,9.23,1.56c38.97,6.82,71.78,24.73,97.42,54.98
	c21.29,25.11,33.9,54.2,37.95,86.94c0.31,2.46-0.06,5.6,3.52,5.75c6.84,0.29,13.73,0.92,21.19-0.73
	C695.03,446.28,675.45,405.26,640.58,371.95z M679.46,527.82c-5-0.37-6.86,1.39-7.39,6.42c-1.88,17.84-6.97,34.84-15.03,50.85
	c-23.93,47.53-61.65,77.45-114.04,88.01c-15.87,3.2-15.99,2.64-15.56,18.85c0.25,9.53,0.34,9.62,10.09,8.1
	c70.17-10.94,118.8-49.55,146.54-114.64c7.64-17.92,11.7-36.81,12.99-57.5C690.46,527.91,684.93,528.22,679.46,527.82z
	 M486.13,323.17c-80.99,10.09-147.86,77.24-157.65,158.37c-2.2,18.18-0.74,14.09,12.48,14.58c1.38,0.05,2.78-0.12,4.15,0.03
	c4.79,0.52,6.53-1.17,7.26-6.35c9.66-67.94,47.86-112.61,111.82-136.01c10.17-3.72,20.95-4.91,31.66-6.95c0-8.14,0-15.68,0-24.2
	C492.07,322.84,489.08,322.8,486.13,323.17z M336.84,528.12c-9.48-0.11-9.66,0.2-8.66,9.86c7.85,75.34,63.93,140.06,137.35,158.28
	c9.77,2.43,19.68,4.56,30.4,4.25c1.07-7.76,0.49-15.1,0.41-22.41c-0.03-3.33-2.53-3.19-4.88-3.47
	c-57.98-6.86-97.58-39.44-124.41-89.48c-9.37-17.47-13.82-36.55-15.4-56.26C346.49,527.32,341.63,528.17,336.84,528.12z
	 M133.79,340.3c-3.41,3.44-4.2,7.47-6.35,10.67c-3.52,5.23-1.57,7.77,3.58,10.44c26.18,13.57,52.72,26.37,79.35,39.02
	c4.72,2.24,9.18,5.21,14.92,6.35c3.09-5.96,6.12-11.81,9.47-18.3C201.15,371.35,167.42,355.77,133.79,340.3z M893.67,345.92
	c-1.67-5.31-4.28-5.91-9.22-3.52c-26.53,12.8-53.26,25.18-79.82,37.94c-17.48,8.39-17.43,8.7-6.35,25.43
	c0.11,0.17,0.39,0.22,1.51,0.83c32.6-15.54,65.85-31.13,98.6-48.68C896.65,353.53,894.9,349.81,893.67,345.92z M229.63,624.36
	c-2.32-6.58-5.67-7.74-12.32-4.68c-28.46,13.11-56.53,26.99-84.43,41.23c-2.6,1.33-5.66,2.06-7.83,5.12
	c2.71,5.69,4.33,12.13,8.62,17.77c33.63-16.44,66.69-32.6,100.56-49.15C232.39,630.6,230.76,627.57,229.63,624.36z M896.53,671.77
	c2.78-4.79,1.17-7.45-3.46-9.69c-14.93-7.24-29.69-14.82-44.63-22.06c-14.31-6.94-28.8-13.49-43.1-20.45
	c-5.11-2.49-8.48-2.25-10.57,3.72c-1.26,3.59-3.35,6.89-5.44,11.04c33.8,16.74,66.98,33.18,100.55,49.8
	C893.35,679.9,894.35,675.51,896.53,671.77z M396.78,205.44c-11.17-21.17-22.41-42.3-33.59-63.47c-6.51-12.34-6.38-12.17-18.66-5.95
	c-5.37,2.72-6.93,5.35-3.78,11.19c11.48,21.26,22.43,42.81,33.69,64.19c8.04,15.26,8.33,15.26,22.99,5.71
	c1.33-0.87,2.96-1.43,2.89-3.96C399.27,210.87,398.17,208.08,396.78,205.44z M645.91,220.13c4.11-7.74,8.14-15.52,12.21-23.29
	c8.87-16.96,17.64-33.97,26.7-50.83c2.27-4.23,1.57-6.81-2.57-8.88c-3.3-1.65-6.46-3.57-9.79-5.16c-2.96-1.42-5.08-0.64-6.72,2.5
	c-13.26,25.34-26.64,50.62-39.98,75.92c-0.99,1.88-2.17,4.25-0.09,5.67c4.95,3.37,10.36,5.99,15.71,7.99
	C644.46,224.19,644.99,221.87,645.91,220.13z M686.57,880.44c-14.69-27.84-29.24-55.44-44.08-83.57
	c-6.82,3.62-13.32,5.87-19.3,10.24c13.5,28.49,29.21,55.53,43.76,83.47C673.86,887.6,680.16,885.01,686.57,880.44z M381.55,801.11
	c-11.75,21.15-23.53,42.28-35.2,63.47c-9.57,17.4-9.51,17.43,8.76,25.03c0.58,0.24,1.27,0.23,2.42,0.42
	c14.22-27.77,29.55-54.96,44.85-82.46c-6.16-4.09-11.64-7.41-18.27-10.25C383.05,798.88,382.2,799.94,381.55,801.11z M747.43,489.21
	c-7.37,6.95-15.47,14.58-23.38,22.04c7.16,7.34,13.76,14.09,20.34,20.86c2.09,2.15,4.1,2.59,6.54,0.37
	c7.16-6.49,13.77-13.47,20.65-21.37C763.48,503.77,755.7,496.72,747.43,489.21z M276.78,534.16c7.18-7.48,14.59-15.18,20.54-21.37
	c-7.38-7.55-14.98-15.34-22.41-22.94c-6.87,6.76-14.39,14.16-20.97,20.63C261.79,518.62,269.24,526.34,276.78,534.16z M489.54,269.2
	c7.41,7.37,14.07,15.6,22.83,22.46c7.8-7.54,16.09-14.34,22.85-22.96c-7.9-7.86-15.36-15.27-22.24-22.11
	C505.23,254.06,497.54,261.48,489.54,269.2z M512.39,732.15c-8.07,7.56-15.59,14.6-23.37,21.88c6.92,9.03,15.17,15.96,22.98,24.02
	c7.88-8.06,16.13-14.7,22.18-22.11C526.6,747.66,519.65,740.07,512.39,732.15z"/>
</svg>
