<?xml version="1.0" encoding="UTF-8"?>
<svg id="Layer_1" data-name="Layer 1" xmlns="http://www.w3.org/2000/svg" version="1.1" viewBox="0 0 1024 1024">
  <defs>
    <style>
      .cls-1 {
        fill: #0d0d0d;
        stroke-width: 0px;
      }
    </style>
  </defs>
  <path class="cls-1" d="M643,521.7c0,69-64.2,129-142.1,123.3-60.1-4.4-110.5-52-118-112-6.8-54.7,10.3-100,55.8-132.4,70-49.8,149.2-14.8,182.2,35.9,15,23.1,22.2,48.4,22.1,85.1h0ZM639,705.5c2.9,1.9,4.6,3.1,6.3,4.2,63.5,41.3,128.4,80.3,190.1,124.3,3.4,2.4,6.7,4.9,10.1,7.3,3.2,2.2,6.7,3.8,10,.6,3.5-3.3,2.8-7,0-10.5-1.7-2.2-3.3-4.5-5-6.6-47-57.6-93.1-115.9-138.6-174.7-1.9-2.5-3.3-5.6-7.7-7.5-17,25.8-39.6,45.5-65.4,63h.1ZM286.6,683.5c-35.1,44.6-70.3,89.2-105.4,133.7-4.1,5.2-8.4,10.4-12.4,15.8-2.1,2.8-2.4,6.2.3,8.9,2.7,2.8,5.9,2.1,8.9.3,1.2-.7,2.3-1.5,3.4-2.3,50.8-37.7,104.5-71.2,157.7-105.4,15-9.7,30.3-19.1,46-29-13.3-9-25.2-18-35.9-28.5-10.9-10.7-20.4-22.5-29.7-35.3-11.3,14.3-22.1,28.1-32.9,41.8ZM363.9,301.8c-57.9-36.8-116.5-72.3-172.8-111.6-4.4-3-8.5-6.3-13-9.2-3-1.9-6.3-1.8-8.8,1-2.4,2.7-1.6,5.6.4,8.2,2.3,3.1,4.8,6.2,7.3,9.2,42.3,50.4,82.9,102.2,123,154.4,6.4,8.3,12.5,16.8,19.1,25.7,10-12.6,19.4-24.2,30.5-34.4,11.2-10.2,23.7-18.9,37.5-28.2-8.7-5.7-15.9-10.5-23.3-15.2h0ZM718,362.2c43-54.8,85.1-110.4,130.3-163.5,2.7-3.2,5.3-6.4,7.5-9.9,1.5-2.3.9-4.9-1.1-7-2.1-2.2-4.4-2.2-6.9-.8-1.6.9-3.2,1.8-4.7,2.9-60.8,42-123.6,80.7-185.6,120.8-6.2,4-12.9,7.6-19.1,13.5,26.5,16.5,48,37.2,67,62.1,4.8-6.8,8.4-12.7,12.7-18.1h-.1ZM558.8,796.6c-11.8,7.2-24,13.9-35.3,21.9-8.1,5.8-14.2,5.8-22.5,0-13.4-9.5-28-17.4-42.4-26.2-1.3,3.9.3,6.4,1,9,12.6,47,26,93.7,37.5,141,3.6,14.8,6.9,29.6,10.3,44.5.7,2.9,1.5,5.5,5,5.7,4.1.2,4.6-3,5.1-6.1.5-3,1-5.9,1.6-8.8,9.2-42.3,20.7-84.1,32-126,5.2-19.3,10.4-38.5,16-59.4-3.7,2-6,3.2-8.3,4.6v-.2ZM793.4,565.5c23.5-6.6,47-13.3,70.5-19.9,37.5-10.4,75.3-19.9,113.3-28.6,2.6-.6,6-.7,6.4-4.3.4-3.6-2.8-3.7-5.2-4.3-61.2-14.7-121.7-32.1-181.8-50.7-3-.9-6.2-2.6-10.4-1.5,8.9,15.1,16.9,29.9,26.1,43.9,5.9,9,5.3,16.1-.5,24.9-8.7,13.2-17.4,26.5-24.1,41.1,2.3,1.1,4,0,5.7-.5h0ZM459,232.3c15.6-9.8,31.3-19.4,46.6-29.6,5.3-3.5,9.2-3.4,14.2,0,14,9.4,28.2,18.5,42.4,27.6,1.4.9,2.5,2.9,5,1.5-.5-2-.9-4-1.4-5.9-8.1-29.4-16.6-58.6-24.2-88.1-8.6-33.5-18.5-66.7-25.1-100.7-.4-2.2-.7-5-3.6-5.2-3.4-.3-3.9,2.6-4.5,5.1-.2.9-.5,1.8-.7,2.7-10.8,51.1-24.9,101.2-38.7,151.5-3.7,13.5-7.8,26.9-11.6,40.3.5.3,1.1.6,1.6.9h0ZM228.8,457.1c-43.6,13.6-87.5,25.9-131.4,38.2-16.9,4.7-34,8.4-51,12.6-2.6.6-6.1.8-6,4.5,0,3.6,3.6,3.7,6.2,4.4,4.9,1.2,9.9,2.1,14.9,3.3,54.9,13.3,109.4,27.9,163.6,44,3.7,1.1,7.4,2,12.6,3.3-9.9-16.9-18.7-32.5-28.3-47.7-3.8-5.9-3.5-10.4,0-16.2,9.3-15.3,18-31.1,27.2-47.1-3.4-1.3-5.5,0-7.6.8h-.2ZM640.6,372c-31.1-29.8-68.7-46.4-112.6-49.5-1,8.8-1,16.5,0,24.5,3.4.6,6.3,1,9.2,1.6,39,6.8,71.8,24.7,97.4,55,21.3,25.1,33.9,54.2,38,86.9.3,2.5,0,5.6,3.5,5.8,6.8.3,13.7.9,21.2-.7-2.2-49.2-21.8-90.2-56.7-123.5h0ZM679.5,527.8c-5-.4-6.9,1.4-7.4,6.4-1.9,17.8-7,34.8-15,50.8-23.9,47.5-61.7,77.5-114,88-15.9,3.2-16,2.6-15.6,18.8.2,9.5.3,9.6,10.1,8.1,70.2-10.9,118.8-49.5,146.5-114.6,7.6-17.9,11.7-36.8,13-57.5-6.6,0-12.1.3-17.6,0ZM486.1,323.2c-81,10.1-147.9,77.2-157.6,158.4-2.2,18.2-.7,14.1,12.5,14.6,1.4,0,2.8-.1,4.1,0,4.8.5,6.5-1.2,7.3-6.4,9.7-67.9,47.9-112.6,111.8-136,10.2-3.7,21-4.9,31.7-7v-24.2c-3.8.2-6.8.2-9.7.5h-.1ZM336.8,528.1c-9.5,0-9.7.2-8.7,9.9,7.9,75.3,63.9,140.1,137.4,158.3,9.8,2.4,19.7,4.6,30.4,4.2,1.1-7.8.5-15.1.4-22.4,0-3.3-2.5-3.2-4.9-3.5-58-6.9-97.6-39.4-124.4-89.5-9.4-17.5-13.8-36.5-15.4-56.3-5.2-1.6-10-.7-14.8-.8h0ZM133.8,340.3c-3.4,3.4-4.2,7.5-6.3,10.7-3.5,5.2-1.6,7.8,3.6,10.4,26.2,13.6,52.7,26.4,79.4,39,4.7,2.2,9.2,5.2,14.9,6.4,3.1-6,6.1-11.8,9.5-18.3-33.6-17.1-67.3-32.7-101-48.2h0ZM893.7,345.9c-1.7-5.3-4.3-5.9-9.2-3.5-26.5,12.8-53.3,25.2-79.8,37.9-17.5,8.4-17.4,8.7-6.3,25.4,0,.2.4.2,1.5.8,32.6-15.5,65.8-31.1,98.6-48.7-1.7-4.4-3.5-8.1-4.7-12h0ZM229.6,624.4c-2.3-6.6-5.7-7.7-12.3-4.7-28.5,13.1-56.5,27-84.4,41.2-2.6,1.3-5.7,2.1-7.8,5.1,2.7,5.7,4.3,12.1,8.6,17.8,33.6-16.4,66.7-32.6,100.6-49.2-1.8-4-3.5-7.1-4.6-10.3h0ZM896.5,671.8c2.8-4.8,1.2-7.5-3.5-9.7-14.9-7.2-29.7-14.8-44.6-22.1-14.3-6.9-28.8-13.5-43.1-20.5-5.1-2.5-8.5-2.2-10.6,3.7-1.3,3.6-3.3,6.9-5.4,11,33.8,16.7,67,33.2,100.5,49.8,3.5-4.2,4.5-8.6,6.7-12.4v.2ZM396.8,205.4c-11.2-21.2-22.4-42.3-33.6-63.5-6.5-12.3-6.4-12.2-18.7-5.9-5.4,2.7-6.9,5.4-3.8,11.2,11.5,21.3,22.4,42.8,33.7,64.2,8,15.3,8.3,15.3,23,5.7,1.3-.9,3-1.4,2.9-4-1.1-2.3-2.1-5.1-3.5-7.7ZM645.9,220.1c4.1-7.7,8.1-15.5,12.2-23.3,8.9-17,17.6-34,26.7-50.8,2.3-4.2,1.6-6.8-2.6-8.9s-6.5-3.6-9.8-5.2c-3-1.4-5.1-.6-6.7,2.5-13.3,25.3-26.6,50.6-40,75.9-1,1.9-2.2,4.2,0,5.7,5,3.4,10.4,6,15.7,8,3.1.1,3.6-2.2,4.5-3.9h0ZM686.6,880.4c-14.7-27.8-29.2-55.4-44.1-83.6-6.8,3.6-13.3,5.9-19.3,10.2,13.5,28.5,29.2,55.5,43.8,83.5,6.9-3,13.2-5.6,19.6-10.1h0ZM381.5,801.1c-11.8,21.2-23.5,42.3-35.2,63.5-6.4,11.6-3.5,19.9,8.8,25,.6.2,1.3.2,2.4.4,14.2-27.8,29.5-55,44.9-82.5-6.2-4.1-11.6-7.4-18.3-10.2-1.1,1.6-1.9,2.6-2.6,3.8h0ZM747.4,489.2c-7.4,7-15.5,14.6-23.4,22,7.2,7.3,13.8,14.1,20.3,20.9,2.1,2.2,4.1,2.6,6.5.4,7.2-6.5,13.8-13.5,20.7-21.4-8.1-7.3-15.9-14.4-24.2-21.9h.1ZM276.8,534.2c7.2-7.5,14.6-15.2,20.5-21.4-7.4-7.5-15-15.3-22.4-22.9-6.9,6.8-14.4,14.2-21,20.6,7.9,8.1,15.3,15.9,22.8,23.7h.1ZM489.5,269.2c7.4,7.4,14.1,15.6,22.8,22.5,7.8-7.5,16.1-14.3,22.8-23-7.9-7.9-15.4-15.3-22.2-22.1-7.7,7.5-15.4,14.9-23.4,22.6h0ZM512.4,732.2c-8.1,7.6-15.6,14.6-23.4,21.9,6.9,9,15.2,16,23,24,7.9-8.1,16.1-14.7,22.2-22.1-7.6-8.3-14.5-15.9-21.8-23.8h0Z"/>
</svg>