<?xml version="1.0" encoding="utf-8"?>
<!-- Generator: Adobe Illustrator 28.3.0, SVG Export Plug-In . SVG Version: 6.00 Build 0)  -->
<svg version="1.1" id="Layer_1" xmlns="http://www.w3.org/2000/svg" xmlns:xlink="http://www.w3.org/1999/xlink" x="0px" y="0px"
	 viewBox="0 0 1024 1024" style="enable-background:new 0 0 1024 1024;" xml:space="preserve">
<style type="text/css">
	.st0{fill:#5F736F;}
</style>
<g>
	<path class="st0" d="M512,121c213.1,1.5,392.9,170.9,392.1,394.1C903.4,738.1,723.3,903.9,511,903
		c-216.4-0.9-391.6-170.5-391.1-391C120.3,292.4,298.8,123.2,512,121z M870.9,518.4c1.8-222.9-184.3-364.6-358.2-364.6
		c-172,0-355.3,133.7-359.5,354c-4.1,211.6,166.9,359.4,355.2,362.7C693.9,873.7,868.1,726.4,870.9,518.4z"/>
	<path class="st0" d="M718.7,421.2c9-3.8,17.7-7.5,26.4-11.2c14.9-6.5,29.7-13,44.5-19.5c8.4-3.7,15.5-1.2,18.8,6.6
		c2.9,6.9-0.6,14.8-8.3,18.1c-23,9.7-46.1,19.4-69.2,28.9c-3.1,1.3-4.3,2.5-3.2,6.2c13.4,43,12.3,86.2,0,129.2
		c-12.9,45-37.6,82.4-74.3,111.7c-9.8,7.8-20.5,14.4-31.5,20.3c-4.1,2.2-4.6,4.3-2.8,8.3c8.7,19,17.3,38.2,25.9,57.3
		c1.2,2.6,2.4,5.1,3.4,7.7c3.1,8.1,0.1,15.7-7.3,18.9c-6.8,2.9-13.7-0.3-17.4-8.4c-8.7-19.1-17.3-38.2-25.9-57.3
		c-1.9-4.2-3.8-8.3-6-12.8c-3.2,1-6.1,1.9-9,3c-15,5.4-30.6,8.2-46.4,10.1c-1.8,0.2-4.3-0.3-4.4,2.6c0,2.7-1.2,5.7,2.2,7.5
		c2,1.1,4,2.3,5.9,3.5c20.1,13,28.4,38.5,19.9,60.8c-8.5,22.4-31.6,35.7-55.4,32.1c-22.4-3.5-38.8-18.7-42.8-39.6
		c-4.3-22.4,5.4-43.6,25.5-55.1c3.2-1.8,5.3-3.8,4.9-7.8c-0.2-2.3-0.9-3.6-3.4-3.8c-19.2-1.8-37.9-6.1-55.9-13.3
		c-2.4,2-3.3,4.8-4.4,7.3c-9.1,20.2-18.2,40.5-27.3,60.7c-1.2,2.6-2.3,5.1-4.3,7.2c-4.5,4.5-10.9,5.7-16,2.9c-5.1-2.9-7.7-9-6-15
		c0.9-3.2,2.3-6.3,3.6-9.4c8.9-19.9,17.8-39.9,26.7-59.8c0.6-1.4,1.2-2.9,2.1-4.8c-31.2-14.6-55.4-37.3-76.7-63.4
		c-1.3-0.4-2.1,0.5-2.9,1c-23.1,14.5-46.3,29-69.4,43.4c-8,5-15.7,3.6-20.1-3.6c-4.4-7.1-2.1-14.5,6.2-19.6
		c23-14,46.1-27.9,69.1-41.9c0.7-0.4,1.4-0.9,2.7-1.8c-3.9-7.3-7.8-14.6-12-22.4c-6.9,3.4-13.7,6.6-20.4,10
		c-16.5,8.4-32.9,17-49.3,25.5c-9,4.7-15.6,3.3-19.4-4.1c-4.1-7.9-1.2-15.7,7.5-20.1c22.5-11.4,44.9-22.8,67.5-33.9
		c4.3-2.1,5.7-3.9,4.3-9.1c-10.9-41.7-10.5-83.3,1.4-124.7c0.2-0.7,0.4-1.4,0.5-2c0.1-0.3-0.1-0.7-0.2-1.6
		c-11.5-5-23.3-10.1-35.1-15.1c-12.1-5.2-24.3-10.3-36.5-15.4c-5.4-2.3-9.3-5.8-9.6-12.1c-0.2-5.8,2.5-10.1,7.5-13
		c4.9-2.9,9.5-1,14.1,0.9c21.2,9.1,42.4,18.3,63.6,27.4c1.6,0.7,3.3,1.3,5.4,2.2c4.2-8.1,8.3-16.1,12.7-24.7
		c-24.6-2.3-45-11.2-59.1-31.8c-9-13.2-11.9-27.7-10.4-43.2c2.4-26.1,23.2-57.1,61.9-60.8c19.9-1.9,37.1,4.4,51.8,17.9
		c14.6,13.4,21.9,30.2,23.5,50.2c7.4-4.3,14.2-8.2,21.2-12.3c-7.9-17.9-15.6-35.4-23.4-53c-2.4-5.5-5.1-10.8-7.6-16.3
		c-3.5-7.6-1-15.7,5.9-19c7.2-3.4,15.1-0.4,18.8,7.7c6.1,13.5,11.9,27.1,17.9,40.6c4.3,9.8,8.6,19.6,13.1,29.7
		c53.4-19.9,106.7-19.4,160.7-0.5c4.2-9.6,8.4-19.2,12.6-28.8c6.2-14,12.4-28,18.8-41.9c2.5-5.5,6.9-8.3,13.1-7.8
		c6.2,0.5,9.9,4.1,12,9.7c1.4,3.6,0.4,6.8-1.1,10.2c-9.2,20.2-18.3,40.4-27.4,60.7c-1.1,2.5-2.2,5.1-3.5,8.1c5.1,3,9.9,5.9,14.6,8.6
		c24.9-26,50.2-50.9,76.1-76.3c25.7,26,51,51.7,77,78.1c-0.1-0.2-0.9,0.3-1.5,0.8c-24,23.3-47.9,46.7-72,70
		c-2.5,2.4-2.8,4.3-1.3,7.2C713,409.3,715.7,415,718.7,421.2z M316.1,513.4c-0.2,113.8,87.9,199,196.6,198.2
		c116.2-0.9,195.2-89.8,195.6-199.2c0.4-112.5-91.5-193.5-195.9-193.7C410.3,318.4,315.6,396.4,316.1,513.4z M316.1,285.1
		c-23,0.1-42.2,19.2-42.2,42c0,24.4,18.3,42.8,42.7,42.9c23.2,0,42.7-19.2,42.7-42.1C359.4,304.4,339.9,285,316.1,285.1z M689,298.1
		c14.5,15.2,29.8,31.2,43.6,45.7c7.5-6.7,14.5-12.9,21.2-18.9c-7.9-8.1-15.4-16-23.2-23.6c-7.7-7.6-15.7-15-23.8-22.7
		C700.5,285.5,694.5,292.1,689,298.1z M536.7,794.6c0-13.1-11.9-24.7-25.4-24.6c-12.8,0.1-23.8,11.7-23.7,25
		c0.1,12.8,10.8,23.2,23.9,23.4C525.5,818.5,536.7,808,536.7,794.6z M651,333.5c17.3,14.5,32.1,30.1,46.4,45.4
		c6.9-6.7,13.1-12.7,19.6-19c-14.6-15.8-30.7-30.3-46.1-45.2C664.2,321,657.9,327,651,333.5z"/>
	<path class="st0" d="M225.6,516.4c6.5,6.5,12.7,12.7,19,18.9c6.1,6.1,12.2,12.1,17.6,17.6c-12.3,13.1-24.3,25.8-36.7,39
		c-12.8-13.4-24.9-26.1-38-39.8c11.8-10.9,24.5-22.6,37.5-34.7c-12.3-14.4-26-25.3-37.5-38.2c12.7-12.5,25.3-24.8,38-37.3
		c11.7,12.2,23.8,24.9,35.8,37.4C250.2,490.8,238.1,503.4,225.6,516.4z"/>
	<path class="st0" d="M511.2,274.2c-25.1,0-44.7-19.5-44.8-44.4c-0.1-26,19.8-46.7,44.7-46.7c26.5,0.1,46.6,20.3,46.6,46.6
		C557.6,255.2,537.8,274.2,511.2,274.2z M511.9,246.7c10.2,0,18.4-8,18.3-17.9c-0.1-9.3-8.7-17.5-18.3-17.5
		c-9.5,0-17.6,8.3-17.6,18.1C494.1,238.8,502.2,246.7,511.9,246.7z"/>
	<path class="st0" d="M645.8,728.4c15.8-15.9,32.3-32,48.4-49.7c15.6,17.4,31.6,34.1,48.2,49.6c-16.6,16.3-32.8,32.3-49,48.4
		C678.2,761.2,662.1,745,645.8,728.4z"/>
	<path class="st0" d="M755.5,707.5C740.2,690,723.3,675,706.6,659c16.7-16.5,33-33,49.2-50.1c16.2,16.9,31.8,33.6,49,49.4
		C787.8,674.3,771.5,690.5,755.5,707.5z"/>
	<path class="st0" d="M323.9,688.6c23.2-0.1,41.3,18.3,41.3,41.8c0,22.6-18.2,40.6-41.2,40.8c-23.1,0.1-41.9-17.8-41.9-40
		C282.1,706.9,300,688.7,323.9,688.6z M306.6,729.8c-0.1,8.5,7.7,16.6,16.4,16.9c9.3,0.3,17.6-7.4,17.8-16.6
		c0.2-9-7.8-16.9-17.3-17.1C314.7,712.7,306.8,720.6,306.6,729.8z"/>
	<path class="st0" d="M763.9,558.2c0-7.2,0-14.4,0-21.7c0-5.8,2.7-9.2,8.5-9.3c15.9-0.3,31.7-0.3,47.6-0.1c4.9,0.1,7.9,3.2,8,8.1
		c0.2,15.3,0.2,30.7,0.1,46c0,5.1-3.6,8.7-8.8,8.7c-15.5,0.2-31,0.2-46.5,0.1c-5.4-0.1-8.7-3.7-8.8-9.2
		C763.8,573.3,763.9,565.8,763.9,558.2L763.9,558.2z"/>
	<path class="st0" d="M796.6,454c7.2,0,14.4-0.1,21.7,0c6.4,0.1,9.7,3.4,9.7,9.9c0.1,13.7,0.2,27.5,0.1,41.2c0,5.9-3,9.5-8.9,9.6
		c-15.5,0.3-31,0.3-46.5,0c-5.7-0.1-8.9-3.9-8.9-9.7c-0.1-13.6-0.1-27.1,0-40.7c0-6.5,3.6-10.2,10-10.3
		C781.5,453.9,789.1,454,796.6,454z"/>
	<path class="st0" d="M599.9,384.5c-72.2,73.3-144.3,146.6-216.6,220c-40.6-54.2-39.9-144.4,15.5-200
		C453.2,350,541.6,343,599.9,384.5z"/>
	<path class="st0" d="M642.6,427.7c35.9,45.5,41,135-14.9,195.1c-57,61.3-150.5,61.9-204.3,22.7C496.8,573.1,570,500.7,642.6,427.7z
		"/>
</g>
</svg>
