<?xml version="1.0" encoding="UTF-8"?>
<svg id="Layer_1" data-name="Layer 1" xmlns="http://www.w3.org/2000/svg" version="1.1" viewBox="0 0 1024 1023">
  <defs>
    <style>
      .cls-1 {
        fill: #3ca6a6;
        stroke-width: 0px;
      }
    </style>
  </defs>
  <path class="cls-1" d="M807.9,511.2c2,138.6-88.4,266-222.5,305.7-100.7,29.9-195.8,14.1-281.8-48.1-10.3-7.4-19.3-16.4-28.2-25.4-2-2-6.4-4-3.4-7.5s5.7.5,8,2.1c29.1,21.6,61.5,35.7,97.2,42.3,106.2,19.6,206.7-26.6,261.2-120,25-42.8,39.7-88.8,40-138.5.9-132.9-99.2-250.5-230.7-269.6-60.6-8.8-118.7,1-170.7,35.9-2.6,1.7-5.6,4.2-8.3.6-2.5-3.3.2-6,2.4-8.2,15.5-15.5,32-29.9,50.9-41.1,58.6-34.9,122.3-51.7,190.4-47.3,74.7,4.9,139.5,34,193.9,85.7,54.4,51.7,88.3,114.1,98.8,188.8,2.3,15.5,3.3,31,2.8,44.6ZM238.7,534c-5.3-22.7-6-45.5-2.8-68.5.4-3.3.9-6.7-3.2-7.8-3.7-1-4.9,2.2-6.2,4.7-.7,1.3-1.1,2.7-1.5,4-7.2,23.3-10.8,47.3-8.1,71.5,15.2,132.1,137.3,207.9,250.2,185.7,40.7-8,75.8-26.4,103.7-57.6,2.2-2.5,6-5.3,3.2-8.8-3.2-4.1-6.2.2-8.6,2.1-35.1,27.2-75.3,38.4-134.2,38.8-93.3,1.5-172-75.3-192.5-164.1Z"/>
</svg>