<?xml version="1.0" encoding="utf-8"?>
<!-- Generator: Adobe Illustrator 28.3.0, SVG Export Plug-In . SVG Version: 6.00 Build 0)  -->
<svg version="1.1" id="Layer_1" xmlns="http://www.w3.org/2000/svg" xmlns:xlink="http://www.w3.org/1999/xlink" x="0px" y="0px"
	 viewBox="0 0 1024 1024" style="enable-background:new 0 0 1024 1024;" xml:space="preserve">
<style type="text/css">
	.st0{fill:#95BFB8;}
</style>
<g>
	<path class="st0" d="M510.3,903c-112.8-2.3-210.4-42.2-290.7-121.8c-59.2-58.7-93.9-130.8-104.8-213.3
		c-12.3-93.1,6.4-180.3,56.2-260.1c42.8-68.4,102.5-117.8,175.9-150.8c63-28.3,129.3-41.2,198-34c137.4,14.6,244.8,79,315.7,198.9
		c37.5,63.4,55.4,133.4,51.7,207.1c-6.2,122.3-58.3,221.4-157.4,294.4c-62.3,45.9-132.7,70.9-209.6,77.9
		C533.8,902.4,522.2,902.5,510.3,903z M531.9,861.6c2.1,0,3.8,0.1,5.5,0c11-0.7,21.9-2.5,32.8-4.3c80.9-13.4,150.4-49.2,207.5-107.9
		c56.8-58.4,88.5-128.9,93.8-210.2c6.3-96-22.5-181.5-86.5-252.8c-78-86.9-176.6-129.1-294.1-123.6c-46.5,2.2-90.8,14.2-132.8,34.2
		c-55.1,26.3-101.9,62.9-138.1,112.2c-56.1,76.7-77.5,162.4-64.2,256.6c10.8,77.2,45.5,142.4,102.2,195.3
		c58.2,54.4,127.4,87,206.5,98.2c8.6,1.2,17.2,2.9,26.3,1.8c0-33.6,0-66.8,0-100.2c-74-9-136.7-39.6-183.8-97.7
		c-47.3-58.4-64.5-125.8-54.7-200.2c13.2,0,25.8,0,39,0c-6.9,63.2,4.4,121.1,44.3,171.9c39.6,50.5,92.1,77,155.6,86.3
		c0-104.9,0-208.7,0-312.7c13.9,0,27.1,0,41,0c0,104.1,0,207.7,0,312.1c47.5-5.5,88.9-23.2,124.5-53.6
		c63.2-53.8,85.4-123,75.2-204.3c13.2,0,26,0,39,0c8.5,61.1-1.3,118.6-33.6,170.8c-47,75.9-117.4,115.7-205.2,127
		C531.9,793.9,531.9,827.3,531.9,861.6z"/>
	<path class="st0" d="M510.5,362.4c-41.1-0.5-72.4-32.8-71.4-74.5c0.9-33.6,25.9-69.5,74.3-69.1c39.8,0.4,71.6,32.9,70.3,73.1
		C582.4,331.8,551.9,362.7,510.5,362.4z"/>
	<path class="st0" d="M683.9,481.5c6.4,41.8-5,78.6-30.4,110.8c-26.5,33.7-62.2,51.3-104.9,54.9C540.4,590,578.7,505.4,683.9,481.5z
		"/>
	<path class="st0" d="M339.3,482.1c77.9,14,142.8,82.2,135.8,165.7c-39.7-4.9-74.6-19.4-101.1-50
		C345.3,564.7,333.7,526.1,339.3,482.1z"/>
	<path class="st0" d="M370.4,436.8c-25.9,0-45.8-19.6-45.9-45.2c-0.1-25.7,19.6-45.3,45.6-45.6c25.1-0.3,45.9,20.5,45.7,45.6
		C415.7,416.8,395.6,436.8,370.4,436.8z"/>
	<path class="st0" d="M644.9,428.9c-20.8,0-37.9-16.2-38-36c0-21.1,16.5-37.6,37.6-37.7c21.2,0,37.1,15.8,37.3,37
		C681.9,413,666,428.9,644.9,428.9z"/>
	<path class="st0" d="M849.1,519.7c-0.2,13.6-10.2,23.3-23.7,23.2c-12.7-0.1-23.4-10.9-23.3-23.4c0.2-13.3,11.4-24,25-23.6
		C839.5,496.4,849.3,506.9,849.1,519.7z"/>
	<path class="st0" d="M197.7,543.1c-12.6,0-23.2-10.4-23.4-23.2c-0.2-12.9,10.5-23.8,23.4-23.8c12.9,0,23.8,11.1,23.8,24.2
		C221.5,532.6,210.6,543,197.7,543.1z"/>
	<path class="st0" d="M594.4,466.8c-0.1,12.6-9.7,21.8-22.9,21.7c-12.4,0-22-9.6-22-22.1c0-12.5,10.1-22.5,22.5-22.4
		C584.5,444.2,594.5,454.3,594.4,466.8z"/>
	<path class="st0" d="M473.2,466.4c-0.1,12.3-9.9,22.3-22,22.4c-12.4,0.1-22.8-10.2-22.8-22.3c0.1-12.3,10.3-22.5,22.7-22.5
		C463,444,473.2,454.4,473.2,466.4z"/>
</g>
</svg>
