<?xml version="1.0" encoding="utf-8"?>
<!-- Generator: Adobe Illustrator 28.3.0, SVG Export Plug-In . SVG Version: 6.00 Build 0)  -->
<svg version="1.1" id="Layer_2" xmlns="http://www.w3.org/2000/svg" xmlns:xlink="http://www.w3.org/1999/xlink" x="0px" y="0px"
	 viewBox="0 0 1024 1024" style="enable-background:new 0 0 1024 1024;" xml:space="preserve">
<style type="text/css">
	.st0{fill:#95BFB8;}
</style>
<path class="st0" d="M511.9,288.8c63.4,0.4,113.4,50.9,113,114.3c-0.4,60.8-52,111.3-113.4,110.9c-63.2-0.4-112.9-50.5-112.6-113.4
	C399.3,338.7,450.1,288.5,511.9,288.8z M525.1,822.1c-0.1,3,1.1,5,3.2,7c13.5,12.7,26.5,25.9,39.2,39.4c2,2.1,3.7,2.7,6.5,2
	c10-2.6,20.1-4.6,29.9-7.5c38.6-11.2,73.5-29.7,105.7-53.7c30.8-22.9,57.1-50.3,79.7-81.3c1.4-2,2.6-3.7,1.8-6.7
	c-6.2-21.5-12.8-43-21.3-63.7c-2.8-6.8-5.9-13.3-10-20.1C722.4,728.8,633,796.7,525.2,802.7C525.2,809.4,525.3,815.8,525.1,822.1z
	 M264.3,637.9c-0.8,1.4-1.8,3-2.6,4.6c-12.7,25.1-20.7,51.9-28.5,78.8c-0.8,2.9,0.4,4.6,1.9,6.7c11.2,14.8,23.1,28.9,35.9,42.4
	C320.7,822.4,380.5,856,451,870.6c2.1,0.4,3.7,0.6,5.5-1.3c12.5-14,25.8-27.2,39.4-40c1.3-1.3,2.9-2.4,2.9-4.5c0-7.2,0-14.3,0-21.4
	C387.9,793.8,310.7,737.7,264.3,637.9z M326.5,563.9c-15.7,12.9-29,28-41.2,44.1c-2,2.7-1.3,4.9-0.2,7.4
	c32.4,79.3,89.1,131.5,172.5,153.4c13.3,3.5,26.9,5,41,5.2c0-20.7,0-40.7,0-60.5c-89.5-13.5-147.7-61.5-170.5-150.5
	C327.6,563.3,327,563.5,326.5,563.9z M694.2,567.8c-5.6,27.1-16.7,51.7-34,73.2c-33.2,41.2-76.2,65.1-128.9,70.8
	c-4.6,0.5-6.6,1.8-6.2,6.7c0.4,5.7,0.1,11.5,0.1,17.3c0,12.5,0,25,0,37.7c6.5,0.8,12.5,0.2,18.3-0.7
	c94.9-16.2,160.1-69.5,196.4-158.5c1.1-2.7,0.8-4.5-1-6.6c-5-6-9.6-12.3-14.8-18.2c-8.5-9.6-17.6-18.8-27.8-26.7
	C694.3,564.5,694.5,566.2,694.2,567.8z M532.5,682.8c21.7-2.9,42.1-9.8,60.8-21.2c40.1-24.5,65-59.8,74.2-106
	c2.3-11.8,2.2-11.9-7.8-18.2c-4.5-2.9-9-5.7-13.7-8.4c-8.3-4.8-16.7-9.5-25.1-14.3c-21.2,38.6-53.4,60.3-95.4,67.5
	c0,33.9,0,67.2,0,100.4C528,683.6,530.3,683.1,532.5,682.8z M498.7,582c-20.5-3.1-38.9-10.3-55.5-22.1
	c-16.6-11.8-30.4-26.3-39.7-44.8c-12.3,6-23.6,12.7-34.8,19.6c-14.8,9.3-15.4,9.4-11.1,26.2c15.9,62.2,55.4,101.3,117,118.5
	c7.7,2.1,15.5,3.8,24.1,3.7C498.7,649.3,498.7,615.8,498.7,582z M565.9,223.6c0,6.5,0.2,12.8-0.1,19.1c-0.2,3.9,1.2,5.7,5.1,6.9
	c41.6,13.5,78.2,35.6,109.2,66.4c49.6,49.1,75.3,109,78.7,178.5c1.1,22.3-0.2,44.4-4.1,66.4c-0.6,3.4,0.3,5.4,3.1,7.1
	c6,3.6,11.9,7.3,18.4,11.3C818.9,396.8,693.9,251.9,565.9,223.6z M282.7,353.5c-43.5,69.8-51.1,145.9-35.8,226.5
	c7.6-4.7,13.7-8.5,19.8-12.2c2.7-1.6,3.4-3.5,2.8-6.6c-6.1-32.7-6.7-65.6-0.8-98.2c18.2-100.5,75.8-169.2,169.7-208.1
	c6.3-2.6,12.7-4.7,19.1-7c0-8.2,0-16.1,0-25.2C381.7,243.6,323.7,287.7,282.7,353.5z M566.8,145c-0.3,5.5-0.2,11.1-0.8,16.6
	c-0.4,4.6,1.2,6.3,5.7,7.4c52.9,12.6,100.6,35.8,142.7,70.3c9.7,7.9,18.8,16.5,26.6,23.4c6.2-5.4,12-10.5,18.1-15.8
	C706,192.4,642.4,158.3,568,142.7C567.4,143.9,566.9,144.4,566.8,145z M265.3,247.1c5.2,5.9,10.8,11.4,16.8,16.7
	c1.4-1.3,2.3-2.1,3.2-3c25.9-24.3,53.6-46.2,85.5-62.3c26-13.1,53-23.3,81.5-29.5c2.3-0.5,5.3-0.1,5.3-3.8c0-7.4,0-14.7,0-22.7
	C383.1,155.7,307.3,200.1,265.3,247.1z M163,445.7c6.9,1.7,13.3,0.7,19.6,1.2c4.2,0.4,5.4-1.3,6.2-5.4
	c10.4-55.7,33.1-105.7,68.6-149.9c1.5-1.9,3.5-3.5,3.8-5.7c-4.8-5-9.4-9.7-13.9-14.5c-0.7-0.7-1.5-1.3-3.1-2.7
	C201.2,320.8,173.4,379,163,445.7z M836.5,445.8c6.1,1.2,19.4,1.1,25.3-0.1c-10.7-66.5-38.7-124.9-81.9-176.7
	c-6.3,5.8-11.8,11-17.6,16.3C801.5,332.8,826.3,386.1,836.5,445.8z M480.9,140.2c0,17.3,14.1,31.2,31.6,31.2
	c16.6,0,30.7-14.5,30.7-31.5c0-17.2-14.1-31.3-31.5-31.3C494.2,108.5,480.9,122.2,480.9,140.2z M811.6,677c3.2,2.1,6.3,4.3,9.8,6.6
	c20.5-37.5,34.3-76.4,39.9-118.8c-3.8,0-6.5,0-9.1,0c-14.7,0-14.7,0-17.7,14c-0.3,1.6-0.7,3.2-1,4.8c-7.2,29.9-16.8,58.8-31.9,86.5
	C805.2,672.7,808.4,674.9,811.6,677z M203.6,683.8c6.9-4.3,13.3-8.3,20.1-12.6c-19.2-33.2-29-69.2-36.5-106.3c-2.5,0-4.7,0-7,0
	c-5.3,0-10.6,0-16.9,0C169.6,607.6,182.7,646.7,203.6,683.8z M512.2,855.9c-15.1-0.2-29.1,13.9-29.2,29.3
	c-0.1,16.6,13.2,30.3,29.4,30.2c15.6,0,28.4-13.1,28.4-29C540.9,870.3,527.6,856.1,512.2,855.9z M170.4,477
	c-16.2,0.1-29.2,12.4-29.4,28c-0.2,15.9,13.3,29.6,29.4,29.7c15.8,0.1,29.4-13.2,29.4-28.8C199.9,490,186.5,476.9,170.4,477z
	 M883,504.8c-0.1-15.1-13.7-27.9-29.7-27.8c-16,0.1-28.7,12.6-28.8,28.5c-0.2,16,12.9,29.3,28.9,29.2
	C870,534.6,883.1,521.4,883,504.8z M511.4,256.4c14.6,0.2,27.4-12.1,27.7-26.8c0.2-14.1-12.9-27.1-27.4-27.1
	c-14.4,0.1-26.5,12.5-26.5,27C485.2,243.6,497.5,256.2,511.4,256.4z M353.6,502.4c-4.9-9.6-9.4-18.7-14.5-28.7
	c-6.1,9.9-11.7,18.9-17.8,28.7C332.6,502.4,342.6,502.4,353.6,502.4z M670.9,502c10.6,0,20.4,0,30.8,0c-5.7-9.6-10.9-18.5-16.6-28.2
	C680.1,483.7,675.6,492.8,670.9,502z"/>
</svg>
