<?xml version="1.0" encoding="utf-8"?>
<!-- Generator: Adobe Illustrator 28.3.0, SVG Export Plug-In . SVG Version: 6.00 Build 0)  -->
<svg version="1.1" id="Layer_1" xmlns="http://www.w3.org/2000/svg" xmlns:xlink="http://www.w3.org/1999/xlink" x="0px" y="0px"
	 viewBox="0 0 1024 1023" style="enable-background:new 0 0 1024 1023;" xml:space="preserve">
<style type="text/css">
	.st0{fill:#95BFB8;}
</style>
<path class="st0" d="M962.79,510.98c3,211.2-134.65,405.21-338.96,465.81c-153.36,45.49-298.25,21.52-429.31-73.29
	c-15.65-11.32-29.33-25-42.96-38.63c-3.02-3.02-9.78-6.04-5.11-11.43c4.57-5.27,8.75,0.69,12.23,3.27
	c44.41,32.9,93.73,54.34,148.09,64.37c161.76,29.85,314.93-40.53,397.89-182.84c38.03-65.23,60.5-135.29,60.98-210.96
	c1.3-202.51-151.13-381.68-351.43-410.76c-92.35-13.41-180.77,1.51-260.14,54.67c-3.97,2.66-8.57,6.35-12.63,0.94
	c-3.78-5.03,0.3-9.17,3.67-12.55c23.59-23.63,48.8-45.51,77.5-62.6c89.35-53.22,186.32-78.82,290.12-72
	c113.8,7.48,212.53,51.77,295.41,130.62c82.83,78.8,134.6,173.83,150.56,287.6C961.99,466.67,963.5,490.26,962.79,510.98z
	 M95.59,545.83c-8-34.58-9.07-69.33-4.25-104.37c0.68-4.97,1.37-10.19-4.85-11.85c-5.6-1.5-7.42,3.41-9.45,7.21
	c-1.02,1.91-1.66,4.05-2.3,6.13c-10.95,35.55-16.52,72.02-12.27,108.97c23.15,201.2,209.19,316.7,381.24,282.9
	c61.96-12.17,115.47-40.2,157.95-87.72c3.38-3.78,9.16-8.07,4.95-13.39c-4.94-6.24-9.46,0.26-13.16,3.14
	c-53.44,41.51-114.72,58.55-204.47,59.05C246.75,798.09,126.89,681.07,95.59,545.83z"/>
</svg>
