<?xml version="1.0" encoding="UTF-8"?>
<svg id="Layer_2" data-name="Layer 2" xmlns="http://www.w3.org/2000/svg" version="1.1" viewBox="0 0 1024 1024">
  <defs>
    <style>
      .cls-1 {
        fill: #f2f2f2;
        stroke-width: 0px;
      }
    </style>
  </defs>
  <path class="cls-1" d="M511.4,129.9c89.7.6,169.2,30.1,239.4,85.4,64.9,51.2,110.5,116.2,134.1,195.2,33.8,113.2,19,221.3-44.1,320.8-60.6,95.5-148.3,154.2-259.6,175.7-99.9,19.3-192.7-1.1-277.9-55.3-65.7-41.9-116-98.1-147.6-169.9-21.4-48.5-33.9-99.2-34.2-152.4-.5-71.3,16.4-138,52.5-199.8,44-75.3,105.4-131.5,184.7-167.7,48.4-22.1,99-32,152.8-32.1h-.1ZM171.4,522.9c.6,15.8,1.4,31.2,3.3,46.5,11.1,86.3,50.1,158.1,116.2,213.9,74.5,63.1,161.2,90.9,258.9,79.3,91.1-10.8,167.1-51.1,225.1-122.3,68.3-83.8,90.1-180.3,69.3-285.7-16.6-84.4-59.9-154.2-129-205.4-109.8-81.5-229.6-96.1-352-34.8-125,62.6-186.1,169.6-191.9,308.5h.1,0ZM509.3,829.3c-98.7-4.3-180-43.7-241.1-121.8-45.5-58.3-65.6-125.5-61.2-199.1,4.7-79.2,35.3-147.9,91.8-204,47.5-47.2,104.2-77.1,171-86.2,73-9.9,140.9,4.9,202.6,45.2,78.6,51.3,125.3,123.6,139.9,216.4,2.1,13.2-3,21.2-14.2,23.1-10.3,1.7-20-6.1-21.8-18-5.9-38.8-19.1-74.8-40.4-107.8-44.9-69.6-108.4-112-190.6-121.7-108.8-12.8-195.4,28.7-256.7,118.6-42.1,61.8-54.5,131.5-39.5,205.3,21.8,107.3,107.6,190.1,216.9,208,83,13.6,157.2-7.3,221.5-61.4,41.6-35.1,68.4-80,82.4-132.6,3.5-13.1,5-26.7,7.2-40.1,1.8-11.6,9-18.3,18.5-17.6,10.5.8,18.2,9.2,17.4,20.8-2.5,35.7-11.5,69.8-27.8,101.6-47.2,92-122.3,146.8-223.5,166.4-17.2,3.3-34.7,4.3-52.3,4.9h-.1ZM741.6,522.8c2.2,122.9-96.6,230.9-232.3,231.2-124.8.2-229-104.4-228.8-229.1.2-129.2,102.4-233.9,227.6-234.5,133.7-.6,234.9,107.4,233.5,232.4h0ZM692.7,523c-.2-96.5-74.9-178.7-172.2-183.6-111.9-5.7-187.5,88.2-190.6,174.2-3.6,100.9,73.1,186.6,172.2,191.3,106.2,5,190.3-78.7,190.6-181.9h0ZM563.7,508.3c-14.8,13-26.9,25.9-39.4,38.4-24.5,24.4-48.9,48.9-73.2,73.4-7.2,7.2-15.4,12-25.9,10-19.1-3.8-26.3-25.1-13.2-39.5,11.4-12.5,23.5-24.2,35.3-36.2,23.6-24.1,47.3-48.1,70.9-72.2,1.3-1.4,3.5-2.4,3-5.8h-86.1c-16,0-28.5-11.6-29-26.1-.3-10.7,6.2-18.6,16.8-20.1,2.2-.3,4.5-.4,6.8-.4,58.2,0,116.5,0,174.7-.2,5.1,0,7.2.8,7.1,6.6-.2,53.9-.2,107.8,0,161.7,0,10.5-3,19.1-13.5,23.4-10.5,4.3-22.5-.3-29.1-11-3.5-5.6-5-11.6-5-18.2,0-25.1-.2-50.2-.3-75.3v-8.4h.2,0Z"/>
</svg>