<?xml version="1.0" encoding="UTF-8"?>
<svg id="Layer_1" data-name="Layer 1" xmlns="http://www.w3.org/2000/svg" version="1.1" viewBox="0 0 1024 1024">
  <defs>
    <style>
      .cls-1 {
        fill: #f2f2f2;
        stroke-width: 0px;
      }
    </style>
  </defs>
  <path class="cls-1" d="M512,121c213.1,1.5,392.9,170.9,392.1,394.1-.7,223-180.8,388.8-393.1,387.9-216.4-.9-391.6-170.5-391.1-391,.4-219.6,178.9-388.8,392.1-391ZM870.9,518.4c1.8-222.9-184.3-364.6-358.2-364.6S157.4,287.5,153.2,507.8c-4.1,211.6,166.9,359.4,355.2,362.7,185.5,3.2,359.7-144.1,362.5-352.1Z"/>
  <path class="cls-1" d="M718.7,421.2c9-3.8,17.7-7.5,26.4-11.2,14.9-6.5,29.7-13,44.5-19.5,8.4-3.7,15.5-1.2,18.8,6.6,2.9,6.9-.6,14.8-8.3,18.1-23,9.7-46.1,19.4-69.2,28.9-3.1,1.3-4.3,2.5-3.2,6.2,13.4,43,12.3,86.2,0,129.2-12.9,45-37.6,82.4-74.3,111.7-9.8,7.8-20.5,14.4-31.5,20.3-4.1,2.2-4.6,4.3-2.8,8.3,8.7,19,17.3,38.2,25.9,57.3,1.2,2.6,2.4,5.1,3.4,7.7,3.1,8.1,0,15.7-7.3,18.9-6.8,2.9-13.7-.3-17.4-8.4-8.7-19.1-17.3-38.2-25.9-57.3-1.9-4.2-3.8-8.3-6-12.8-3.2,1-6.1,1.9-9,3-15,5.4-30.6,8.2-46.4,10.1-1.8.2-4.3-.3-4.4,2.6,0,2.7-1.2,5.7,2.2,7.5,2,1.1,4,2.3,5.9,3.5,20.1,13,28.4,38.5,19.9,60.8-8.5,22.4-31.6,35.7-55.4,32.1-22.4-3.5-38.8-18.7-42.8-39.6-4.3-22.4,5.4-43.6,25.5-55.1,3.2-1.8,5.3-3.8,4.9-7.8-.2-2.3-.9-3.6-3.4-3.8-19.2-1.8-37.9-6.1-55.9-13.3-2.4,2-3.3,4.8-4.4,7.3-9.1,20.2-18.2,40.5-27.3,60.7-1.2,2.6-2.3,5.1-4.3,7.2-4.5,4.5-10.9,5.7-16,2.9-5.1-2.9-7.7-9-6-15,.9-3.2,2.3-6.3,3.6-9.4,8.9-19.9,17.8-39.9,26.7-59.8.6-1.4,1.2-2.9,2.1-4.8-31.2-14.6-55.4-37.3-76.7-63.4-1.3-.4-2.1.5-2.9,1-23.1,14.5-46.3,29-69.4,43.4-8,5-15.7,3.6-20.1-3.6-4.4-7.1-2.1-14.5,6.2-19.6,23-14,46.1-27.9,69.1-41.9.7-.4,1.4-.9,2.7-1.8-3.9-7.3-7.8-14.6-12-22.4-6.9,3.4-13.7,6.6-20.4,10-16.5,8.4-32.9,17-49.3,25.5-9,4.7-15.6,3.3-19.4-4.1-4.1-7.9-1.2-15.7,7.5-20.1,22.5-11.4,44.9-22.8,67.5-33.9,4.3-2.1,5.7-3.9,4.3-9.1-10.9-41.7-10.5-83.3,1.4-124.7.2-.7.4-1.4.5-2,.1-.3-.1-.7-.2-1.6-11.5-5-23.3-10.1-35.1-15.1-12.1-5.2-24.3-10.3-36.5-15.4-5.4-2.3-9.3-5.8-9.6-12.1-.2-5.8,2.5-10.1,7.5-13,4.9-2.9,9.5-1,14.1.9,21.2,9.1,42.4,18.3,63.6,27.4,1.6.7,3.3,1.3,5.4,2.2,4.2-8.1,8.3-16.1,12.7-24.7-24.6-2.3-45-11.2-59.1-31.8-9-13.2-11.9-27.7-10.4-43.2,2.4-26.1,23.2-57.1,61.9-60.8,19.9-1.9,37.1,4.4,51.8,17.9,14.6,13.4,21.9,30.2,23.5,50.2,7.4-4.3,14.2-8.2,21.2-12.3-7.9-17.9-15.6-35.4-23.4-53-2.4-5.5-5.1-10.8-7.6-16.3-3.5-7.6-1-15.7,5.9-19,7.2-3.4,15.1-.4,18.8,7.7,6.1,13.5,11.9,27.1,17.9,40.6,4.3,9.8,8.6,19.6,13.1,29.7,53.4-19.9,106.7-19.4,160.7-.5,4.2-9.6,8.4-19.2,12.6-28.8,6.2-14,12.4-28,18.8-41.9,2.5-5.5,6.9-8.3,13.1-7.8,6.2.5,9.9,4.1,12,9.7,1.4,3.6.4,6.8-1.1,10.2-9.2,20.2-18.3,40.4-27.4,60.7-1.1,2.5-2.2,5.1-3.5,8.1,5.1,3,9.9,5.9,14.6,8.6,24.9-26,50.2-50.9,76.1-76.3,25.7,26,51,51.7,77,78.1,0-.2-.9.3-1.5.8-24,23.3-47.9,46.7-72,70-2.5,2.4-2.8,4.3-1.3,7.2,3.1,5.3,5.8,11,8.8,17.2ZM316.1,513.4c-.2,113.8,87.9,199,196.6,198.2,116.2-.9,195.2-89.8,195.6-199.2.4-112.5-91.5-193.5-195.9-193.7-102.1-.3-196.8,77.7-196.3,194.7ZM316.1,285.1c-23,.1-42.2,19.2-42.2,42s18.3,42.8,42.7,42.9c23.2,0,42.7-19.2,42.7-42.1,0-23.5-19.4-42.9-43.2-42.8ZM689,298.1c14.5,15.2,29.8,31.2,43.6,45.7,7.5-6.7,14.5-12.9,21.2-18.9-7.9-8.1-15.4-16-23.2-23.6-7.7-7.6-15.7-15-23.8-22.7-6.3,6.9-12.3,13.5-17.8,19.5ZM536.7,794.6c0-13.1-11.9-24.7-25.4-24.6-12.8,0-23.8,11.7-23.7,25,.1,12.8,10.8,23.2,23.9,23.4,14,0,25.2-10.4,25.2-23.8ZM651,333.5c17.3,14.5,32.1,30.1,46.4,45.4,6.9-6.7,13.1-12.7,19.6-19-14.6-15.8-30.7-30.3-46.1-45.2-6.7,6.3-13,12.3-19.9,18.8Z"/>
  <path class="cls-1" d="M225.6,516.4c6.5,6.5,12.7,12.7,19,18.9,6.1,6.1,12.2,12.1,17.6,17.6-12.3,13.1-24.3,25.8-36.7,39-12.8-13.4-24.9-26.1-38-39.8,11.8-10.9,24.5-22.6,37.5-34.7-12.3-14.4-26-25.3-37.5-38.2,12.7-12.5,25.3-24.8,38-37.3,11.7,12.2,23.8,24.9,35.8,37.4-11.1,11.5-23.2,24.1-35.7,37.1Z"/>
  <path class="cls-1" d="M511.2,274.2c-25.1,0-44.7-19.5-44.8-44.4-.1-26,19.8-46.7,44.7-46.7,26.5.1,46.6,20.3,46.6,46.6-.1,25.5-19.9,44.5-46.5,44.5ZM511.9,246.7c10.2,0,18.4-8,18.3-17.9,0-9.3-8.7-17.5-18.3-17.5s-17.6,8.3-17.6,18.1c-.2,9.4,7.9,17.3,17.6,17.3Z"/>
  <path class="cls-1" d="M645.8,728.4c15.8-15.9,32.3-32,48.4-49.7,15.6,17.4,31.6,34.1,48.2,49.6-16.6,16.3-32.8,32.3-49,48.4-15.2-15.5-31.3-31.7-47.6-48.3Z"/>
  <path class="cls-1" d="M755.5,707.5c-15.3-17.5-32.2-32.5-48.9-48.5,16.7-16.5,33-33,49.2-50.1,16.2,16.9,31.8,33.6,49,49.4-17,16-33.3,32.2-49.3,49.2Z"/>
  <path class="cls-1" d="M323.9,688.6c23.2,0,41.3,18.3,41.3,41.8s-18.2,40.6-41.2,40.8c-23.1,0-41.9-17.8-41.9-40,0-24.3,17.9-42.5,41.8-42.6ZM306.6,729.8c-.1,8.5,7.7,16.6,16.4,16.9,9.3.3,17.6-7.4,17.8-16.6.2-9-7.8-16.9-17.3-17.1-8.8-.3-16.7,7.6-16.9,16.8Z"/>
  <path class="cls-1" d="M763.9,558.2v-21.7c0-5.8,2.7-9.2,8.5-9.3,15.9-.3,31.7-.3,47.6,0,4.9,0,7.9,3.2,8,8.1.2,15.3.2,30.7,0,46,0,5.1-3.6,8.7-8.8,8.7-15.5.2-31,.2-46.5,0-5.4,0-8.7-3.7-8.8-9.2-.2-7.5,0-15,0-22.6h0Z"/>
  <path class="cls-1" d="M796.6,454c7.2,0,14.4-.1,21.7,0,6.4.1,9.7,3.4,9.7,9.9,0,13.7.2,27.5,0,41.2,0,5.9-3,9.5-8.9,9.6-15.5.3-31,.3-46.5,0-5.7,0-8.9-3.9-8.9-9.7,0-13.6,0-27.1,0-40.7,0-6.5,3.6-10.2,10-10.3,7.7-.1,15.3,0,22.8,0Z"/>
  <path class="cls-1" d="M599.9,384.5c-72.2,73.3-144.3,146.6-216.6,220-40.6-54.2-39.9-144.4,15.5-200,54.4-54.5,142.8-61.5,201.1-20Z"/>
  <path class="cls-1" d="M642.6,427.7c35.9,45.5,41,135-14.9,195.1-57,61.3-150.5,61.9-204.3,22.7,73.4-72.4,146.6-144.8,219.2-217.8Z"/>
</svg>