<?xml version="1.0" encoding="UTF-8"?>
<svg id="Layer_1" data-name="Layer 1" xmlns="http://www.w3.org/2000/svg" version="1.1" viewBox="0 0 750 750">
  <defs>
    <style>
      .cls-1 {
        fill: #f2e2c4;
        stroke-width: 0px;
      }
    </style>
  </defs>
  <path class="cls-1" d="M345.3,460.8c-8.9,10.1-17.6,20-26.3,29.9-47.2,53.9-94.4,107.8-141.4,161.8-3.5,4-6.9,5.8-12.4,5.8-26.9-.3-53.7,0-80.6-.2-2.1,0-4.4.6-7.1-1,74.3-85,148.5-169.7,223.1-255.1-78.5-102.6-156.9-205.2-235.3-307.7,1.8-2.3,4-1.4,5.9-1.4,61.9,0,123.8,0,185.6-.2,4.6,0,6.9,2.1,9.3,5.3,43.1,57.1,86.3,114.2,129.5,171.4.8,1.1,1.8,2.2,3.1,3.8,9.8-11.2,19.5-22.1,29.1-33.1,41.4-47.3,82.9-94.6,124.1-142.1,3.4-3.9,6.9-5.3,12-5.3,26.9.2,53.7,0,80.6,0,2.1,0,4.4-.6,7.1,1-69.5,79.4-138.8,158.7-208.5,238.3,81.9,108.3,163.7,216.4,245.6,324.7-2.9,1.7-5.4,1.1-7.7,1.1-58.8,0-117.7,0-176.5.2-6,0-9.5-1.9-13.1-6.5-47.4-62.3-95.1-124.5-142.7-186.7-1-1.3-2-2.5-3.4-4.2h0ZM176.5,147.3c1.4,2.2,2.1,3.4,3,4.4,112.4,147,224.9,294,337.2,441.1,4.3,5.7,8.5,8.6,16,8.1,12-.7,24-.2,36-.2s4,.6,6.2-1.1c-1.4-2-2.7-3.9-4.1-5.8-80.4-106.3-160.7-212.5-241.1-318.7-31-41-62.1-82.1-93.1-123.1-1.6-2.2-2.7-4.8-6.4-4.8-17.5.2-35,0-53.6,0h-.1Z"/>
</svg>